REM MD5 885eaa04c80ed0fb828942c07a4e6887
FILE "Pachi-Slot Kanzen Kouryaku - Takasago Super Project (Japan).bin" BINARY
  TRACK 01 MODE2/2352
    INDEX 01 00:00:00
  TRACK 02 AUDIO
    INDEX 00 28:20:53
    INDEX 01 28:22:53
  TRACK 03 AUDIO
    INDEX 00 29:50:14
    INDEX 01 29:52:14
  TRACK 04 AUDIO
    INDEX 00 31:23:36
    INDEX 01 31:25:36
  TRACK 05 AUDIO
    INDEX 00 34:01:44
    INDEX 01 34:03:44
REM LEADOUT 37:03:44
